<?xml version="1.0" standalone="no"?>
<!DOCTYPE svg PUBLIC "-//W3C//DTD SVG 20010904//EN"
 "http://www.w3.org/TR/2001/REC-SVG-20010904/DTD/svg10.dtd">
<svg version="1.0" xmlns="http://www.w3.org/2000/svg"
 width="300.000000pt" height="146.000000pt" viewBox="0 0 300.000000 146.000000"
 preserveAspectRatio="xMidYMid meet">
<metadata>
Created by potrace 1.10, written by Peter Selinger 2001-2011
</metadata>
<g transform="translate(0.000000,146.000000) scale(0.050000,-0.050000)"
fill="#000000" stroke="none">
<path d="M1713 2821 c-110 -122 -333 -605 -333 -722 0 -105 69 -25 131 151 97
276 257 570 292 535 16 -16 -11 -612 -33 -717 -7 -32 -40 -174 -75 -316 l-64
-258 -280 -137 c-596 -292 -965 -394 -1138 -315 -195 89 -79 615 236 1067 382
548 1013 839 771 355 -110 -220 -105 -296 11 -159 205 242 160 494 -82 469
-585 -60 -1351 -1336 -1044 -1739 181 -238 607 -139 1624 375 344 175 825 383
843 365 36 -36 17 -476 -21 -487 -218 -68 -2190 -1019 -2416 -1165 -120 -78
-135 -144 -20 -86 41 21 115 50 165 63 50 14 338 147 640 296 578 284 775 377
1030 485 22 9 178 76 346 148 365 156 324 153 381 29 227 -495 863 -575 1773
-221 701 273 1526 715 1529 820 1 14 -6 23 -14 20 -9 -4 -133 -67 -275 -140
-1474 -754 -2456 -979 -2792 -640 -91 92 -172 256 -153 308 21 53 905 326
1335 412 328 66 440 84 588 95 178 14 213 30 179 84 -71 110 -1121 -78 -1817
-326 -143 -51 -276 -98 -295 -104 -45 -14 -47 186 -5 704 53 651 35 790 -102
790 -84 0 -321 -377 -478 -760 -54 -133 -60 -55 -11 169 50 234 54 362 9 379
-67 26 -88 7 -168 -152 -45 -91 -86 -168 -90 -173 -4 -4 -6 115 -4 265 5 344
-30 391 -173 233z m918 -497 c-17 -210 -31 -403 -31 -430 0 -44 -11 -50 -101
-62 -56 -8 -163 -36 -238 -63 -75 -27 -141 -49 -147 -49 -29 0 309 703 431
896 113 179 122 151 86 -292z m-631 -245 c-35 -189 -58 -363 -52 -387 10 -41
-152 -154 -181 -126 -13 13 91 448 132 549 67 170 145 328 155 318 6 -6 -19
-165 -54 -354z"/>
</g>
</svg>
