<?xml version="1.0" standalone="no"?>
<!DOCTYPE svg PUBLIC "-//W3C//DTD SVG 20010904//EN"
 "http://www.w3.org/TR/2001/REC-SVG-20010904/DTD/svg10.dtd">
<svg version="1.0" xmlns="http://www.w3.org/2000/svg"
 width="300.000000pt" height="300.000000pt" viewBox="0 0 300.000000 300.000000"
 preserveAspectRatio="xMidYMid meet">
<metadata>
Created by potrace 1.10, written by Peter Selinger 2001-2011
</metadata>
<g transform="translate(0.000000,300.000000) scale(0.100000,-0.100000)"
fill="#000000" stroke="none">
<path d="M889 2158 c-72 -79 -195 -382 -148 -366 6 2 28 49 49 106 43 114 79
183 116 227 l25 30 -5 -170 c-6 -167 -12 -212 -62 -401 l-19 -71 -163 -77
c-209 -99 -349 -146 -430 -146 -80 0 -107 11 -121 51 -38 110 37 329 174 511
103 137 252 248 331 248 62 0 62 -41 3 -150 -18 -32 -30 -62 -26 -66 12 -13
47 28 78 92 28 57 30 66 19 98 -15 47 -41 60 -103 52 -132 -15 -342 -221 -451
-441 -91 -184 -96 -356 -11 -411 108 -71 312 -15 733 203 89 46 195 97 235
114 121 50 178 71 183 67 2 -3 5 -57 7 -120 l3 -115 -35 -13 c-151 -52 -1100
-515 -1160 -565 -41 -35 -34 -42 16 -17 21 11 57 25 81 31 24 7 183 81 355
166 241 119 612 287 753 342 6 2 16 -14 23 -37 17 -56 117 -162 180 -189 129
-55 334 -47 543 23 102 35 164 58 276 108 24 10 67 28 95 38 45 17 153 71 268
134 56 31 219 147 219 156 0 5 -42 -13 -92 -40 -131 -68 -421 -200 -596 -270
-245 -97 -394 -134 -552 -134 -158 -1 -234 38 -286 149 -31 65 -30 83 4 96
159 63 349 123 442 141 30 6 59 14 65 19 5 5 19 9 32 9 12 0 42 4 65 10 56 13
267 50 276 49 4 -1 26 -1 50 0 45 1 68 25 41 42 -59 37 -571 -63 -869 -171
-63 -23 -123 -44 -132 -47 -16 -5 -18 3 -18 78 0 46 7 169 16 274 16 196 16
328 -1 344 -54 50 -108 -6 -212 -219 -42 -85 -78 -157 -80 -159 -11 -14 -10
13 2 66 40 172 40 233 -1 233 -20 0 -31 -14 -64 -80 -22 -44 -42 -80 -45 -80
-2 0 -3 59 -2 130 2 107 -1 132 -13 140 -23 15 -29 13 -61 -22z m431 -305
l-13 -173 -31 0 c-17 0 -69 -13 -116 -29 -47 -16 -87 -27 -89 -25 -4 4 16 49
114 261 24 50 65 124 91 165 l49 73 3 -50 c2 -27 -2 -128 -8 -222z m-279 41
c-34 -156 -49 -272 -37 -284 6 -6 6 -13 0 -18 -14 -13 -94 -46 -98 -41 -7 7
43 212 65 269 30 75 79 173 85 168 2 -3 -5 -45 -15 -94z"/>
</g>
</svg>
