<?xml version="1.0" standalone="no"?>
<!DOCTYPE svg PUBLIC "-//W3C//DTD SVG 20010904//EN"
 "http://www.w3.org/TR/2001/REC-SVG-20010904/DTD/svg10.dtd">
<svg version="1.0" xmlns="http://www.w3.org/2000/svg"
 width="1350.000000pt" height="1350.000000pt" viewBox="0 0 1350.000000 1350.000000"
 preserveAspectRatio="xMidYMid meet">
<metadata>
Created by potrace 1.10, written by Peter Selinger 2001-2011
</metadata>
<g transform="translate(0.000000,1350.000000) scale(0.100000,-0.100000)"
fill="#000000" stroke="none">
<path d="M0 6750 l0 -6750 1869 0 1869 0 -8 38 c-5 20 -14 102 -20 182 -6 80
-21 222 -33 315 -44 338 -16 913 53 1100 62 169 157 332 235 407 42 41 48 53
62 119 9 41 18 115 22 164 3 53 10 88 16 85 5 -3 8 -15 7 -28 -2 -13 3 -25 12
-28 17 -6 23 -44 7 -44 -16 0 -22 -33 -10 -67 6 -18 14 -33 19 -33 19 0 50
-73 50 -119 0 -27 7 -62 15 -77 8 -16 15 -37 15 -46 0 -9 5 -20 11 -24 6 -3
18 -22 26 -41 11 -27 19 -34 34 -30 25 7 32 -6 18 -37 -16 -35 4 -81 42 -96
20 -9 29 -19 29 -36 0 -27 32 -48 61 -41 21 6 35 -8 19 -18 -5 -3 -10 -19 -10
-36 0 -27 2 -29 39 -29 22 0 43 5 46 10 3 6 15 10 26 10 19 0 23 -11 19 -62
-1 -19 3 -28 13 -28 18 0 97 -71 97 -87 0 -6 14 -26 31 -44 16 -17 34 -40 40
-50 5 -11 21 -22 34 -25 13 -3 27 -14 30 -23 3 -10 32 -44 66 -77 33 -32 69
-76 80 -97 12 -23 27 -37 39 -37 11 0 25 -10 31 -22 7 -13 23 -36 35 -51 13
-16 24 -37 24 -48 0 -11 10 -23 24 -29 13 -5 27 -17 30 -27 3 -10 19 -26 36
-35 16 -9 30 -24 30 -33 0 -9 17 -33 38 -55 20 -21 45 -48 55 -59 16 -20 16
-21 -1 -21 -26 0 -121 83 -146 127 -13 23 -30 39 -44 41 -25 4 -27 -1 -12 -28
7 -13 7 -21 0 -25 -20 -12 -10 -41 20 -59 17 -9 29 -23 28 -29 -5 -25 13 -66
32 -72 10 -3 22 -14 25 -23 3 -9 24 -30 46 -47 22 -16 63 -50 91 -75 64 -58
83 -59 82 -5 0 22 -2 49 -5 59 -2 10 2 21 9 23 7 3 12 -4 12 -16 0 -11 20 -39
45 -62 43 -40 59 -79 33 -79 -28 0 -39 -17 -32 -45 6 -26 8 -27 20 -11 21 30
49 16 49 -24 0 -71 77 -145 125 -120 36 19 24 45 -27 61 -54 17 -69 44 -32 58
35 13 59 2 66 -30 4 -21 13 -31 32 -35 45 -10 51 -13 58 -31 13 -37 46 -68 75
-73 25 -4 34 -12 45 -45 7 -22 25 -51 39 -66 l25 -27 -30 -10 c-17 -6 -31 -13
-31 -16 0 -4 304 -6 676 -6 600 0 675 2 664 15 -7 8 -21 15 -31 15 -24 0 -24
15 1 47 11 14 20 31 20 38 0 22 38 48 64 43 16 -3 23 -1 19 8 -2 6 0 15 6 19
7 3 11 -2 11 -15 0 -17 4 -19 28 -14 15 4 32 13 38 20 8 10 22 12 43 8 33 -7
45 11 16 23 -14 5 -14 8 1 24 9 11 22 19 29 19 7 0 20 9 30 20 10 11 26 20 36
20 10 0 24 12 32 26 12 23 15 24 26 10 17 -20 42 -21 35 -2 -3 8 9 25 31 41
23 18 34 33 30 44 -3 11 11 29 45 56 28 22 52 47 55 55 3 9 27 33 54 53 27 21
52 48 55 62 3 13 20 33 36 45 17 12 40 39 51 61 11 22 31 45 44 51 13 6 26 20
29 32 3 13 22 34 42 48 20 15 41 37 48 49 6 13 27 34 46 47 19 12 46 42 60 66
14 23 53 69 88 100 34 32 65 69 68 82 4 17 13 24 30 24 13 0 24 5 24 10 0 6
26 37 58 69 31 32 67 73 80 89 13 18 33 32 50 34 23 3 28 8 32 43 5 42 9 44
64 30 29 -8 29 -8 22 28 -6 33 -4 37 24 52 18 9 30 23 30 35 0 25 11 25 43 0
33 -26 37 -17 24 46 -15 71 -6 88 41 81 44 -8 57 -1 66 35 6 27 14 37 51 63
20 14 20 14 0 29 -20 15 -20 15 2 36 13 11 25 33 28 48 4 15 13 43 22 62 9 19
18 51 19 70 2 19 6 49 9 66 9 41 -17 92 -50 100 -50 12 -18 86 59 133 40 25
107 134 109 178 1 18 5 33 10 33 4 0 7 -62 8 -137 0 -134 4 -173 29 -298 10
-52 21 -71 84 -147 82 -98 132 -194 180 -342 65 -198 102 -345 116 -456 13
-107 13 -488 0 -769 -5 -119 -11 -271 -12 -339 l-3 -122 1928 0 1927 0 0 6750
0 6750 -6750 0 -6750 0 0 -6750z m8543 4207 c29 -18 87 -52 129 -75 80 -45
183 -132 255 -216 47 -54 89 -86 115 -86 24 0 143 -148 255 -315 61 -91 137
-249 173 -360 18 -55 48 -133 66 -174 19 -40 31 -78 27 -84 -3 -5 3 -28 14
-51 33 -67 56 -138 61 -188 2 -26 10 -52 18 -59 18 -15 18 -53 -1 -69 -20 -17
-19 -79 1 -102 22 -24 36 -112 23 -145 -14 -38 -27 -18 -31 47 -2 44 -7 55
-22 58 -17 4 -18 -1 -12 -64 5 -52 3 -76 -9 -98 -16 -29 -20 -103 -7 -122 4
-6 15 -13 25 -17 9 -3 17 -14 17 -23 0 -13 -3 -14 -15 -4 -26 22 -33 1 -30
-99 3 -95 5 -102 41 -158 20 -32 43 -83 50 -113 14 -62 88 -276 104 -302 5
-10 10 -26 10 -37 0 -10 20 -61 43 -112 24 -52 47 -114 51 -139 4 -24 11 -49
17 -56 5 -6 11 -58 13 -115 3 -117 31 -358 46 -404 5 -17 14 -57 19 -90 5 -33
19 -96 31 -140 17 -60 23 -108 24 -190 1 -131 -14 -314 -26 -321 -4 -3 -8 -19
-8 -36 0 -17 -7 -54 -14 -82 -8 -28 -22 -80 -30 -116 -9 -36 -27 -103 -41
-150 -27 -89 -45 -164 -51 -215 -2 -16 -8 -52 -13 -80 -6 -27 -10 -69 -10 -92
-1 -27 -7 -45 -16 -51 -13 -6 -14 -14 -6 -34 5 -14 7 -28 4 -31 -3 -3 -9 -43
-13 -89 -16 -160 -38 -343 -44 -358 -3 -8 -10 -34 -16 -57 -10 -39 -14 -43
-41 -43 -17 0 -32 -6 -35 -15 -8 -19 -28 -19 -44 0 -19 23 -37 18 -49 -15 -8
-25 -13 -29 -28 -21 -10 5 -26 12 -35 15 -15 4 -16 9 -7 30 10 20 8 28 -10 47
-11 13 -21 26 -21 31 0 13 -40 9 -41 -4 -1 -7 -2 -17 -3 -23 -2 -17 -71 -82
-94 -89 -36 -12 -26 -29 12 -22 21 4 37 2 41 -4 8 -13 -32 -60 -52 -60 -8 0
-13 -12 -13 -30 0 -31 0 -31 -77 -60 -18 -7 -35 -20 -38 -30 -5 -17 11 -185
21 -221 2 -8 20 -23 39 -32 33 -16 44 -35 29 -50 -4 -3 -14 -2 -23 3 -23 12
-35 2 -63 -50 -13 -25 -30 -45 -38 -45 -8 0 -26 17 -39 38 -33 50 -67 59 -95
24 -15 -19 -25 -23 -37 -17 -12 7 -28 -3 -68 -41 l-52 -50 -75 35 -74 36 0 53
c0 54 -14 76 -65 102 -11 6 -28 33 -37 60 -22 61 -106 145 -144 145 -14 0 -36
12 -50 27 -63 68 -116 81 -133 33 -5 -16 -14 -30 -20 -30 -5 0 -28 16 -51 35
-48 40 -56 42 -65 15 -8 -25 -19 -25 -59 -1 -17 11 -65 24 -106 30 -63 9 -77
8 -86 -4 -16 -22 -26 -19 -64 20 -24 25 -43 35 -64 35 -17 0 -42 7 -56 15 -29
16 -81 42 -125 60 -16 7 -47 20 -68 29 -44 19 -88 21 -105 4 -9 -9 -13 -7 -17
8 -13 40 -23 50 -76 76 -55 28 -86 28 -102 2 -10 -18 -32 -18 -49 -1 -7 7 -21
16 -31 20 -10 4 -15 11 -12 17 4 7 12 7 23 1 12 -7 25 -3 45 11 16 11 50 23
75 26 26 2 54 10 62 18 8 7 42 27 75 44 55 29 155 120 155 141 0 16 -18 10
-24 -8 -6 -15 -10 -14 -30 8 -12 13 -21 32 -18 41 6 23 -41 42 -68 28 -10 -5
-34 -10 -52 -10 -51 0 -195 -28 -270 -51 -57 -18 -70 -20 -83 -9 -11 9 -14 22
-10 37 4 16 1 25 -9 29 -22 8 -116 -39 -150 -75 -33 -35 -51 -38 -77 -15 -17
15 -20 15 -49 -10 -35 -29 -43 -27 -106 21 -18 13 -58 33 -90 44 -32 11 -75
29 -96 40 -33 17 -50 19 -111 13 -40 -3 -78 -12 -86 -18 -9 -7 -74 -11 -185
-11 l-171 0 -3 -38 c-2 -28 -7 -37 -19 -35 -23 4 -71 96 -83 158 -6 29 -13 56
-16 59 -3 3 -15 -5 -26 -19 -22 -27 -21 -59 2 -166 22 -102 140 -198 293 -240
32 -9 61 -22 63 -29 3 -7 -2 -29 -10 -50 -17 -39 -39 -43 -44 -7 -5 32 -30 42
-85 31 -64 -12 -99 -31 -131 -73 -20 -26 -35 -36 -55 -36 -44 0 -88 -19 -105
-45 -13 -20 -22 -23 -47 -18 -28 5 -36 1 -70 -35 -35 -39 -42 -42 -89 -42 -28
0 -61 -5 -72 -11 -12 -6 -80 -13 -152 -16 -140 -5 -178 -16 -225 -67 -20 -22
-30 -25 -61 -20 -47 8 -71 -5 -95 -50 -20 -37 -29 -43 -40 -26 -9 15 -76 -40
-111 -92 -16 -23 -37 -51 -47 -61 -10 -10 -17 -28 -17 -40 4 -46 -1 -56 -40
-78 -24 -14 -53 -43 -70 -71 -43 -69 -69 -62 -84 23 -11 61 -24 71 -100 73
-46 1 -70 7 -77 16 -10 16 -2 79 12 95 5 5 9 15 9 23 0 7 11 37 25 67 21 44
25 66 23 117 l-3 63 -45 5 c-54 7 -70 15 -70 40 0 28 -76 118 -113 134 -39 16
-77 51 -102 94 -11 18 -23 32 -27 32 -24 0 -228 285 -228 319 0 10 -6 24 -14
30 -8 7 -23 42 -34 79 -10 37 -31 108 -46 158 -14 50 -26 106 -26 126 0 19 -7
43 -15 54 -8 10 -15 27 -15 37 0 11 -12 31 -28 45 -15 15 -36 47 -47 72 -10
25 -29 56 -42 71 -13 14 -23 31 -23 38 0 7 -14 26 -30 41 -17 15 -30 38 -30
50 0 13 -9 37 -20 55 -63 102 -119 526 -82 623 20 53 34 95 45 137 5 22 15 54
22 70 6 17 20 57 30 90 10 33 29 89 42 125 25 71 28 101 13 116 -7 7 -4 19 10
37 18 23 22 45 27 164 3 84 11 148 19 164 14 28 27 75 48 174 30 139 49 191
85 240 100 135 191 295 191 336 0 13 -10 49 -21 79 -12 30 -25 84 -30 120 -28
235 -49 271 -102 188 -10 -16 -24 -28 -32 -28 -8 0 -15 2 -15 4 0 8 32 73 59
122 19 33 33 77 39 125 22 157 23 174 7 194 -20 27 -19 51 6 115 12 30 25 89
29 130 6 64 15 92 67 195 69 137 100 193 117 215 7 8 25 38 41 65 16 28 35 56
42 63 7 7 13 17 13 22 0 18 193 211 286 286 51 41 94 79 96 82 12 29 181 148
264 187 127 60 188 69 260 36 23 -10 55 -22 73 -26 17 -3 34 -11 37 -16 15
-25 178 -59 406 -85 112 -12 156 -13 179 -5 17 6 35 9 39 6 4 -3 82 -21 172
-40 89 -19 217 -48 283 -64 66 -17 149 -34 185 -37 36 -3 92 -14 126 -23 58
-17 61 -17 83 0 28 23 45 24 77 3 37 -25 126 -9 221 38 12 6 45 12 75 13 29 2
87 15 128 30 64 23 100 29 241 36 98 6 189 16 220 26 57 17 112 23 247 26 75
2 85 5 107 29 16 18 43 30 82 39 44 9 68 21 99 51 34 33 45 38 68 32 19 -4 43
0 74 14 26 12 67 23 92 27 25 3 72 21 105 40 33 19 66 35 73 35 7 0 36 -15 65
-33z m-5491 -3464 c43 -6 64 -30 124 -143 35 -65 42 -87 47 -160 4 -47 11
-100 17 -119 6 -23 6 -47 -2 -75 -6 -23 -10 -60 -9 -84 1 -24 -4 -52 -10 -64
-9 -16 -7 -41 7 -108 20 -102 16 -120 -27 -120 -37 0 -151 -61 -178 -96 -10
-13 -24 -46 -31 -72 -10 -43 -9 -55 10 -103 21 -53 46 -89 61 -89 15 0 96 60
138 102 49 48 56 44 66 -37 3 -27 15 -95 25 -150 45 -244 55 -345 40 -399 -11
-39 -9 -51 10 -105 19 -52 22 -74 17 -139 -3 -42 -11 -92 -18 -110 -13 -39 -7
-106 18 -175 17 -47 17 -48 -10 -102 -15 -31 -27 -66 -27 -80 0 -13 -4 -26 -9
-29 -14 -9 -117 80 -152 131 -18 25 -40 54 -51 65 -20 20 -21 29 -22 183 -1
108 -2 111 -38 178 -38 68 -47 110 -28 122 18 11 11 42 -23 102 -18 32 -40 77
-50 100 -22 56 -47 217 -47 305 0 39 -5 134 -11 211 -11 146 -12 139 32 377
22 115 44 155 73 130 9 -7 16 -21 16 -31 0 -23 13 -24 30 -4 18 21 38 19 72
-10 40 -34 58 -32 58 4 0 24 -8 34 -42 53 -27 15 -45 34 -51 53 -29 88 -115
171 -259 250 -12 7 -18 21 -18 46 0 65 12 98 52 144 42 48 85 67 133 59 17 -2
47 -7 67 -11z m7325 -14 c82 -30 122 -63 150 -125 29 -63 24 -87 -18 -105 -57
-23 -189 -169 -233 -256 -31 -63 -32 -67 -6 -53 11 6 24 8 29 5 5 -3 26 -57
46 -121 20 -63 42 -117 49 -120 10 -4 12 -69 9 -327 -3 -349 -10 -422 -48
-523 -14 -37 -26 -90 -26 -118 -1 -28 -7 -64 -14 -81 -7 -16 -20 -47 -29 -68
-9 -21 -16 -53 -16 -72 0 -19 -7 -84 -16 -146 -14 -106 -40 -173 -74 -194 -5
-3 -10 -15 -10 -25 0 -11 -12 -27 -26 -37 -14 -9 -39 -30 -55 -46 -34 -33 -50
-32 -60 7 -4 16 -14 36 -22 45 -23 27 -26 57 -12 149 11 77 10 96 -6 176 -29
138 -26 178 16 225 39 43 42 55 20 98 -14 27 -12 46 21 234 20 112 39 239 43
281 4 43 10 80 12 83 3 3 25 -4 48 -16 23 -11 46 -19 51 -17 4 2 27 20 50 41
45 41 46 46 34 135 -6 45 -11 55 -36 68 -16 8 -48 14 -71 13 -63 -4 -69 3 -61
69 8 60 8 64 4 127 -1 22 5 87 15 145 9 58 21 137 25 175 10 82 54 288 69 327
14 37 47 68 71 68 10 0 45 -10 77 -21z m103 -824 c0 -44 -26 -115 -42 -115
-13 0 -9 63 8 113 20 59 34 60 34 2z m-4096 -1158 c49 -28 60 -51 19 -41 -48
12 -122 47 -117 56 10 15 59 8 98 -15z m-151 -311 c12 -30 -17 -35 -33 -6 -9
17 -8 20 9 20 10 0 21 -6 24 -14z m-2588 -151 c0 -10 -6 -20 -12 -22 -8 -3
-13 5 -13 22 0 17 5 25 13 23 6 -3 12 -13 12 -23z m5865 17 c0 -5 -6 -16 -13
-26 -13 -18 -14 -18 -20 -2 -4 10 -5 22 -1 27 7 11 34 12 34 1z m220 -35 c0
-44 -13 -67 -39 -67 -11 0 -10 4 4 21 16 17 17 25 8 49 -11 30 -8 40 14 40 9
0 13 -14 13 -43z m-85 -54 l-7 -28 -13 25 c-10 18 -10 29 -3 38 17 20 32 -2
23 -35z m-19 -92 c-24 -37 -46 -53 -46 -33 0 10 63 83 68 78 2 -2 -8 -23 -22
-45z m-190 7 c9 -15 -32 -48 -60 -48 -11 0 -30 -7 -40 -15 -30 -22 -36 -19
-36 21 0 34 2 36 26 31 15 -3 41 1 58 9 39 17 43 17 52 2z m112 -138 l3 -64
-25 23 c-37 34 -34 116 3 109 12 -3 17 -18 19 -68z m-192 12 c7 -4 13 -34 15
-67 4 -55 2 -60 -16 -60 -17 0 -21 9 -27 54 -8 72 -1 92 28 73z m-671 -230
c-13 -14 -25 17 -18 49 l7 34 8 -39 c5 -21 6 -41 3 -44z m-2232 -68 c126 -31
286 -40 417 -24 149 19 241 23 253 11 8 -8 4 -11 -14 -11 -33 0 -48 -12 -46
-35 2 -15 -5 -21 -28 -23 -16 -1 -59 -9 -95 -16 -86 -19 -267 -29 -275 -16 -3
5 -19 10 -34 10 -15 0 -38 9 -51 20 -13 11 -33 20 -46 20 -13 0 -46 9 -73 20
-32 12 -62 17 -81 14 -24 -5 -34 -2 -49 17 -37 46 -18 49 122 13z m2350 -73
c24 -53 21 -59 -13 -26 -16 16 -30 39 -30 52 0 33 23 19 43 -26z m-2625 -64
c34 -33 42 -34 42 -4 0 46 13 52 77 38 32 -8 75 -22 96 -33 28 -14 49 -18 77
-13 33 6 215 -22 263 -41 9 -3 24 -1 32 6 16 13 156 39 213 40 18 0 41 -5 52
-12 15 -10 22 -9 39 6 40 36 154 59 188 38 6 -4 15 -22 20 -41 12 -47 29 -49
43 -6 14 43 35 55 95 55 39 0 52 -5 73 -28 25 -27 29 -28 57 -16 34 15 88 9
123 -12 28 -18 29 -59 2 -99 -11 -16 -29 -44 -40 -62 -12 -17 -36 -38 -54 -47
-42 -20 -41 -20 -61 1 -14 13 -20 14 -34 5 -44 -33 -97 -51 -132 -46 -20 4
-46 1 -57 -5 -12 -6 -70 -18 -129 -27 -60 -8 -124 -19 -143 -24 -131 -33 -676
-8 -745 34 -11 7 -57 16 -103 19 -46 4 -102 15 -126 25 -38 17 -46 18 -69 5
-34 -17 -55 -7 -117 56 -63 64 -142 171 -127 171 7 0 18 -5 25 -12 10 -10 19
-8 42 5 17 10 35 15 40 12 5 -3 20 1 32 9 33 23 65 20 84 -9 21 -31 32 -32 40
-1 18 71 114 78 182 13z m-643 -102 c37 -40 86 -86 111 -100 24 -14 44 -30 44
-34 0 -15 92 -43 170 -51 41 -5 120 -18 175 -30 191 -40 421 -69 645 -80 178
-8 252 -4 395 24 44 9 118 21 165 26 153 19 214 29 324 55 69 16 122 23 143
19 29 -5 43 1 114 52 44 33 98 74 120 92 44 39 58 37 111 -13 33 -31 37 -41
36 -83 0 -28 8 -65 21 -92 21 -46 29 -116 11 -105 -5 3 -19 1 -30 -5 -19 -10
-20 -17 -14 -76 6 -52 4 -68 -9 -82 -10 -11 -16 -33 -15 -54 1 -40 -21 -81
-52 -98 -11 -6 -20 -20 -20 -30 0 -16 7 -20 30 -20 47 0 102 -65 72 -84 -5 -3
-16 4 -25 15 -23 26 -50 24 -87 -7 -41 -35 -61 -77 -59 -122 4 -55 -9 -71 -32
-41 -10 13 -19 29 -19 35 0 6 -7 17 -16 24 -39 33 -37 47 17 101 28 28 48 53
45 56 -11 12 -65 -10 -92 -38 -26 -27 -29 -37 -29 -99 0 -58 -4 -72 -23 -93
-17 -18 -22 -32 -17 -46 7 -24 -5 -27 -36 -10 -16 8 -25 7 -39 -6 -17 -15 -18
-14 -28 14 -9 25 -16 31 -41 31 -17 0 -38 8 -48 19 -22 24 -123 217 -123 236
0 8 -5 17 -11 21 -17 10 -121 13 -145 3 -13 -4 -26 -3 -33 4 -6 6 -11 7 -11 1
0 -5 4 -14 9 -19 5 -6 13 -27 17 -49 10 -56 -14 -44 -46 22 -14 28 -28 52 -32
52 -5 0 -17 -9 -28 -20 -28 -28 -38 -25 -42 13 -2 24 -8 33 -24 35 -35 5 -47
-20 -29 -60 18 -43 10 -53 -24 -31 -36 23 -64 54 -79 87 -8 19 -17 26 -28 22
-9 -3 -19 -6 -23 -6 -5 0 -16 -20 -25 -45 -21 -53 -29 -60 -55 -43 -16 10 -23
9 -39 -5 -10 -9 -21 -17 -25 -17 -10 0 -37 62 -37 87 0 26 16 29 54 12 20 -9
29 -9 41 1 38 31 1 42 -97 28 -40 -6 -83 -11 -94 -12 -12 0 -31 -9 -43 -20
-12 -11 -29 -16 -43 -13 -21 5 -95 0 -313 -18 -49 -4 -75 -11 -90 -25 -26 -24
-41 -25 -49 -4 -3 9 -15 14 -28 12 -31 -4 -65 -69 -73 -140 -7 -59 -24 -88
-52 -88 -8 0 -23 -10 -33 -22 -18 -23 -19 -23 -26 -3 -4 11 -16 31 -26 44 -10
13 -18 32 -18 42 0 23 -8 24 -32 2 -22 -20 -23 -41 -2 -64 36 -40 -16 -100
-55 -64 -10 9 -34 18 -53 22 l-35 5 5 -75 c5 -79 -7 -106 -29 -65 -7 13 -20
29 -31 36 -24 17 -25 98 -1 124 15 17 15 20 1 34 -20 21 -34 12 -53 -32 -13
-31 -17 -34 -35 -24 -11 6 -20 19 -20 29 0 10 -7 24 -15 31 -8 7 -15 18 -15
25 0 7 7 15 15 19 8 3 15 15 15 26 0 16 -15 28 -65 51 -75 34 -93 57 -64 82
32 28 24 62 -26 103 -29 24 -45 44 -45 59 0 17 -8 26 -30 34 -37 12 -37 24 -5
63 33 39 32 67 -5 113 -29 36 -29 38 -14 74 8 20 19 40 25 46 5 5 9 34 9 65 0
59 28 120 54 120 9 0 36 20 62 45 25 25 54 45 64 45 10 0 48 -34 85 -75z
m-175 -834 c0 -20 -55 -49 -68 -36 -7 7 46 55 61 55 4 0 7 -8 7 -19z m406
-264 c-7 -45 6 -97 23 -97 6 0 16 12 24 26 13 24 15 25 30 10 15 -16 15 -19 0
-54 -29 -63 -53 -83 -53 -43 0 10 -7 24 -15 31 -8 7 -15 18 -15 26 0 7 -7 17
-15 22 -20 11 -22 37 -6 85 18 52 35 48 27 -6z m1909 -17 c0 -7 -6 -15 -12
-17 -8 -3 -13 4 -13 17 0 13 5 20 13 18 6 -3 12 -11 12 -18z m59 -56 c9 -23 8
-24 -14 -24 -19 0 -27 20 -13 33 11 11 20 8 27 -9z m-89 -54 c-20 -23 -29 -21
-19 4 3 9 13 16 22 16 13 0 12 -3 -3 -20z m-3535 -520 l25 -20 -37 0 c-31 0
-38 4 -38 20 0 25 18 25 50 0z m16 -69 c-4 -5 -13 -8 -22 -4 -11 4 -12 8 -3
20 14 16 36 2 25 -16z m1124 -1735 c0 -23 -25 -47 -43 -40 -16 6 -15 8 4 35
20 28 39 31 39 5z m84 -12 c21 -8 20 -24 -1 -40 -17 -12 -17 -14 2 -28 20 -14
19 -15 -7 -21 -38 -10 -53 2 -33 25 9 10 14 24 10 30 -7 11 0 40 9 40 2 0 11
-3 20 -6z m2274 -26 c-2 -13 -7 -23 -13 -23 -5 0 -11 10 -13 23 -2 15 2 22 13
22 11 0 15 -7 13 -22z m-134 -125 c-18 -55 -29 -75 -46 -84 -14 -8 -19 -18
-15 -35 2 -14 0 -27 -5 -30 -17 -11 -56 6 -61 27 -8 31 2 47 31 51 18 2 28 11
35 33 13 40 26 55 48 55 13 0 17 -5 13 -17z m-96 -240 c15 -25 -7 -65 -32 -61
-16 2 -22 11 -24 41 -3 34 -1 37 22 37 14 0 29 -8 34 -17z m-168 -53 c0 -5 -9
-14 -19 -19 -14 -8 -20 -7 -24 3 -3 8 -3 17 0 20 10 10 43 7 43 -4z m-30 -50
c0 -5 -4 -10 -10 -10 -5 0 -13 -12 -16 -27 -4 -15 -14 -34 -21 -42 -10 -9 -11
-17 -4 -24 17 -17 -7 -37 -44 -37 -91 0 -88 49 5 95 19 10 43 26 53 36 19 21
37 25 37 9z m-222 -131 c-17 -11 -40 -11 -58 1 -13 9 -11 13 10 30 25 20 25
20 43 -2 14 -17 15 -23 5 -29z m-130 9 c-3 -7 -20 -13 -38 -13 -18 0 -35 6
-37 13 -3 8 8 12 37 12 29 0 40 -4 38 -12z"/>
<path d="M4655 8071 c-205 -81 -442 -240 -509 -342 -16 -24 -47 -61 -69 -81
-35 -32 -41 -43 -43 -85 -2 -26 -9 -68 -15 -92 l-13 -44 37 -31 c27 -22 37
-39 37 -59 0 -33 42 -78 110 -117 24 -14 66 -44 93 -68 59 -52 88 -64 144 -61
23 2 45 0 49 -4 4 -4 2 -7 -5 -7 -7 0 -28 -12 -46 -26 -49 -37 -37 -54 39 -54
69 0 75 -3 96 -45 12 -22 26 -33 55 -40 22 -5 42 -13 45 -17 3 -4 26 -6 50 -5
42 2 45 0 48 -26 3 -26 4 -27 30 -13 30 15 134 56 144 56 3 0 8 -9 11 -20 3
-11 12 -20 21 -20 22 0 70 45 62 58 -12 20 -75 25 -137 12 -82 -18 -96 -2 -28
33 54 28 75 33 81 18 8 -23 480 20 538 48 8 4 83 6 165 4 83 -1 191 3 240 10
154 21 186 4 121 -62 -20 -20 -36 -41 -36 -45 0 -5 -13 -24 -30 -43 -55 -62
-33 -71 50 -19 30 19 70 47 89 62 24 20 45 28 74 29 45 0 36 -17 107 195 17
52 41 115 52 140 12 26 22 74 24 112 3 37 9 79 14 93 8 21 5 30 -21 60 -17 19
-37 35 -45 35 -8 0 -30 33 -49 75 -43 96 -71 135 -96 135 -11 0 -27 4 -37 9
-9 5 -40 21 -68 35 -29 14 -65 26 -81 26 -16 0 -83 11 -148 25 -66 14 -165 35
-220 46 -55 12 -104 24 -110 27 -5 3 -68 7 -139 8 -73 2 -156 10 -190 18 -34
9 -90 20 -126 25 -115 17 -184 32 -213 47 -40 20 -72 17 -152 -15z m210 -386
c106 -17 288 -58 328 -74 16 -6 39 -11 53 -11 13 0 24 -3 24 -8 0 -4 -60 -8
-132 -8 -153 -1 -266 -20 -376 -65 -106 -44 -161 -80 -299 -196 -111 -94 -153
-120 -153 -93 0 6 -12 15 -26 20 -32 13 -27 31 14 49 18 8 35 26 41 43 6 15
14 28 19 28 5 0 40 41 77 91 74 100 147 179 164 179 6 0 16 11 21 24 7 20 17
26 52 29 86 7 105 7 193 -8z m388 -160 c43 -8 88 -22 99 -30 21 -14 21 -14 -6
-25 -15 -5 -98 -14 -184 -20 -87 -5 -184 -16 -217 -25 -153 -40 -244 -73 -307
-112 -38 -23 -68 -30 -68 -15 0 12 81 87 120 110 196 115 376 153 563 117z
m434 -282 c43 -37 82 -73 86 -80 4 -7 17 -13 27 -13 10 0 22 -4 25 -10 4 -6
-5 -10 -20 -10 -15 0 -34 -4 -44 -10 -30 -16 -241 -58 -241 -48 0 5 12 32 27
61 19 37 27 70 29 112 1 33 2 61 3 63 6 13 43 -9 108 -65z m-752 -79 c6 -27
19 -66 30 -86 10 -21 15 -41 11 -45 -9 -9 -143 36 -157 53 -6 7 -8 21 -5 31 9
28 84 105 98 101 7 -3 18 -27 23 -54z m1118 36 c32 -25 57 -117 36 -131 -23
-15 -42 -6 -50 24 -4 15 -21 43 -38 63 -17 19 -31 38 -31 43 0 27 48 28 83 1z
m-901 -128 c-26 -4 -52 19 -52 45 0 8 14 3 39 -15 38 -27 38 -27 13 -30z"/>
<path d="M8645 8084 c-81 -32 -141 -44 -215 -44 -42 0 -99 -6 -126 -14 -46
-14 -295 -64 -496 -100 -47 -9 -100 -13 -116 -10 -20 4 -58 -3 -109 -20 -53
-18 -89 -24 -110 -20 -24 5 -40 1 -61 -15 -17 -11 -35 -21 -41 -21 -17 0 -81
-60 -97 -91 -8 -16 -21 -29 -29 -29 -7 0 -17 -9 -20 -20 -3 -11 -22 -32 -40
-46 -19 -14 -37 -34 -40 -45 -4 -11 -22 -26 -41 -34 -46 -19 -43 -40 15 -102
l49 -52 -5 -83 c-5 -104 2 -142 32 -171 13 -12 31 -44 40 -72 26 -79 53 -116
78 -110 17 5 39 -10 97 -65 41 -39 92 -80 113 -91 l38 -20 -12 22 c-6 13 -28
40 -48 62 -20 21 -40 45 -44 53 -4 8 -17 14 -27 14 -11 0 -20 5 -20 11 0 6
-11 25 -25 41 -21 25 -25 37 -19 62 10 48 44 100 81 124 39 26 49 27 57 6 7
-20 -8 -50 -46 -90 -20 -21 -29 -40 -26 -55 l3 -24 225 3 c123 1 226 5 229 8
12 12 -23 27 -90 36 -41 5 -81 9 -89 9 -8 -1 -26 -3 -40 -4 -19 -1 -26 3 -28
21 -2 12 2 22 9 22 7 0 42 26 78 58 91 81 149 118 162 105 6 -6 12 -39 14 -73
5 -95 37 -170 86 -200 43 -27 57 -53 39 -75 -9 -10 -17 -12 -30 -5 -16 9 -30
4 -30 -10 0 -13 58 -39 77 -34 15 4 22 16 26 45 9 68 18 72 126 65 51 -4 136
-7 188 -7 90 1 94 0 88 -20 -6 -17 -3 -19 19 -13 34 8 84 -12 119 -49 26 -28
31 -29 85 -24 31 4 84 12 117 20 48 11 61 18 63 34 4 24 65 53 110 53 16 0 37
7 48 15 16 13 17 16 4 25 -8 5 -33 15 -55 22 -84 24 -55 35 78 28 50 -2 87 18
87 47 0 7 6 13 14 13 7 0 21 11 30 24 8 13 29 27 46 31 28 6 34 16 33 53 -1 6
9 12 21 12 30 0 48 16 79 72 15 26 36 50 47 53 15 5 20 15 20 44 0 20 6 43 12
49 10 10 10 17 1 31 -7 10 -9 29 -6 41 6 22 -24 73 -59 98 -10 7 -18 24 -18
36 0 17 -22 43 -71 87 -109 98 -151 125 -324 211 -88 44 -171 86 -185 94 -32
18 -95 17 -145 -2z m235 -387 c34 -9 46 -18 50 -37 3 -14 21 -35 40 -48 45
-30 54 -47 38 -71 -11 -18 -9 -24 14 -48 14 -15 33 -41 43 -56 14 -22 23 -27
42 -22 18 4 23 1 23 -14 0 -10 7 -24 16 -32 14 -12 14 -14 -1 -25 -10 -7 -30
-11 -45 -7 -15 3 -31 0 -34 -6 -11 -17 -34 -13 -58 11 -71 71 -207 147 -373
209 -87 32 -95 33 -237 34 -81 0 -150 4 -154 8 -4 4 0 7 9 7 9 0 56 13 104 29
49 16 115 36 148 46 109 32 295 43 375 22z m-335 -176 c83 -21 172 -58 200
-81 11 -9 41 -31 67 -48 55 -38 108 -88 125 -121 17 -32 17 -32 -14 -16 -142
71 -223 104 -318 128 -153 40 -200 47 -338 53 -119 5 -152 10 -170 24 l-21 18
34 20 c18 12 59 24 89 27 31 3 63 8 71 9 51 11 212 4 275 -13z m-322 -326 c1
-5 -6 -11 -15 -13 -11 -2 -18 3 -18 13 0 17 30 18 33 0z m370 -37 c52 -70 52
-75 0 -98 -55 -24 -78 -20 -67 12 4 13 7 41 6 62 -2 67 22 76 61 24z"/>
<path d="M5400 6975 c0 -15 34 -55 46 -55 18 0 17 20 0 43 -12 15 -46 24 -46
12z"/>
<path d="M7580 6960 c0 -12 79 -70 95 -70 7 0 20 -11 29 -25 9 -14 23 -25 30
-25 8 0 16 -7 19 -15 4 -8 25 -24 49 -36 24 -12 45 -25 48 -28 6 -8 148 -63
221 -86 83 -26 107 -16 42 18 -28 15 -54 31 -57 36 -4 5 -21 12 -39 16 -17 4
-62 21 -99 38 -54 25 -67 36 -62 49 4 12 0 18 -11 18 -9 0 -32 12 -51 26 -19
15 -45 27 -59 27 -14 0 -25 5 -25 12 0 8 -13 16 -29 20 -16 3 -35 13 -42 21
-13 16 -59 19 -59 4z"/>
<path d="M5287 6944 c-12 -12 4 -24 34 -24 19 0 29 5 29 15 0 15 -50 22 -63 9z"/>
<path d="M8195 6940 c-8 -13 55 -44 66 -33 17 17 -2 43 -31 43 -16 0 -31 -4
-35 -10z"/>
<path d="M8356 6941 c-3 -5 15 -23 41 -40 40 -27 55 -31 114 -31 37 0 70 4 73
8 8 13 -8 30 -36 37 -20 5 -29 2 -37 -14 -11 -20 -11 -20 -59 5 -26 14 -51 29
-56 35 -13 12 -33 12 -40 0z"/>
<path d="M5077 6928 c-11 -9 -15 -21 -11 -35 11 -39 43 -25 58 25 6 17 3 22
-11 22 -11 0 -27 -6 -36 -12z"/>
<path d="M5149 6922 c16 -31 40 -47 52 -35 21 21 5 48 -29 51 -30 3 -32 1 -23
-16z"/>
<path d="M8303 6915 c-3 -9 -3 -18 0 -21 9 -9 27 6 27 22 0 19 -19 18 -27 -1z"/>
<path d="M5645 6846 c-11 -7 -31 -16 -45 -19 -32 -8 -67 -33 -58 -43 4 -3 31
5 60 19 29 14 61 28 71 31 20 6 23 26 4 26 -7 0 -21 -6 -32 -14z"/>
<path d="M5455 6765 c-19 -15 -18 -15 15 -13 19 2 34 8 33 13 -3 17 -27 17
-48 0z"/>
<path d="M5290 6714 c-36 -12 -76 -23 -89 -23 -13 -1 -49 -7 -80 -15 -31 -8
-89 -20 -129 -26 -39 -7 -70 -16 -66 -21 11 -18 138 -9 229 17 50 14 110 31
135 38 69 19 110 37 110 47 0 14 -39 8 -110 -17z"/>
<path d="M8280 6640 c8 -5 24 -10 35 -10 17 0 17 2 5 10 -8 5 -24 10 -35 10
-17 0 -17 -2 -5 -10z"/>
<path d="M9776 5588 c-2 -7 -7 -39 -9 -70 -4 -44 -2 -56 8 -52 7 3 15 24 18
47 4 23 7 51 9 61 3 22 -20 34 -26 14z"/>
<path d="M9620 5386 c0 -17 5 -26 16 -26 10 0 14 7 12 22 -5 32 -28 35 -28 4z"/>
<path d="M9735 5360 c-7 -12 2 -30 16 -30 5 0 9 9 9 20 0 21 -15 27 -25 10z"/>
<path d="M9706 5232 c-3 -5 -18 -9 -34 -10 -17 0 -48 -6 -71 -12 -49 -13 -69
-47 -49 -80 22 -35 40 -33 74 7 30 35 33 37 57 24 34 -18 47 -7 47 40 0 36
-12 51 -24 31z"/>
<path d="M8297 5053 c-12 -11 -8 -23 8 -23 8 0 15 7 15 15 0 16 -12 20 -23 8z"/>
<path d="M9150 4719 c0 -11 5 -17 10 -14 6 3 10 13 10 21 0 8 -4 14 -10 14 -5
0 -10 -9 -10 -21z"/>
<path d="M5322 4041 c4 -13 18 -16 19 -4 0 4 -5 9 -11 12 -7 2 -11 -2 -8 -8z"/>
<path d="M7510 3448 c10 -23 30 -56 44 -73 13 -16 34 -42 45 -56 26 -33 78
-56 93 -41 13 13 -8 41 -103 142 -79 83 -108 93 -79 28z"/>
<path d="M4484 1505 c-9 -23 3 -45 26 -45 11 0 23 -7 26 -15 4 -8 11 -15 16
-15 6 0 5 7 -2 15 -7 9 -14 25 -15 38 -1 12 -3 25 -4 30 -2 13 -42 7 -47 -8z"/>
<path d="M4552 1393 c5 -26 38 -29 38 -4 0 15 -6 21 -21 21 -14 0 -19 -5 -17
-17z"/>
<path d="M4644 1305 c-3 -8 -3 -19 0 -24 4 -6 -2 -19 -14 -31 -11 -11 -20 -21
-20 -23 0 -1 27 -3 60 -3 33 0 60 2 60 5 -1 17 -20 33 -33 28 -17 -7 -52 37
-42 53 3 6 4 10 0 10 -3 0 -8 -7 -11 -15z"/>
<path d="M5668 213 c-21 -5 -24 -36 -4 -52 23 -19 66 3 66 34 0 25 -16 30 -62
18z"/>
<path d="M5736 141 c-4 -5 5 -22 18 -38 28 -32 50 -23 44 18 -2 17 -10 25 -30
27 -14 2 -29 -1 -32 -7z"/>
<path d="M7263 123 c-7 -2 -13 -16 -13 -29 0 -17 6 -24 20 -24 25 0 44 32 28
48 -13 13 -16 13 -35 5z"/>
</g>
</svg>
